<svg xmlns="http://www.w3.org/2000/svg" width="600" height="200" viewBox="0 0 600 200">
  <g fill="none" fill-rule="evenodd">
    <path fill="#000000" d="M20,176 L54,72 L82,72 L116,176 L88,176 L82,158 L54,158 L48,176 L20,176 Z M60,136 L76,136 L68,110 L60,136 Z"/>
    <path fill="#000000" d="M120,176 L120,72 L148,72 L170,130 L192,72 L220,72 L220,176 L194,176 L194,110 L170,176 L148,176 L126,110 L126,176 L120,176 Z"/>
    <path fill="#000000" d="M240,176 L240,72 L268,72 L268,102 L294,102 L294,72 L322,72 L322,176 L294,176 L294,128 L268,128 L268,176 L240,176 Z"/>
    <path fill="#000000" d="M340,176 L340,72 L400,72 L400,98 L368,98 L368,110 L394,110 L394,136 L368,136 L368,150 L400,150 L400,176 L340,176 Z"/>
    <path fill="#000000" d="M415,176 L415,72 L443,72 L443,150 L476,150 L476,176 L415,176 Z"/>
    <path fill="#000000" d="M482,176 L482,72 L542,72 L542,98 L510,98 L510,110 L536,110 L536,136 L510,136 L510,150 L542,150 L542,176 L482,176 Z"/>
    <path fill="#000000" d="M547,176 L574,72 L608,72 L635,176 L604,176 L600,158 L582,158 L578,176 L547,176 Z M586,134 L596,134 L591,110 L586,134 Z"/>
    <path fill="#000000" d="M648,176 L648,100 L628,100 L628,72 L696,72 L696,100 L676,100 L676,176 L648,176 Z"/>
    <path fill="#000000" d="M700,176 L700,72 L728,72 L728,110 L734,110 L750,72 L780,72 L760,116 L780,176 L750,176 L738,136 L728,146 L728,176 L700,176 Z"/>
    <path fill="#FCBD00" d="M808,20 C808,20 794,34 776,44 C758,54 730,58 730,58 L730,46 C730,46 774,30 798,4 C798,4 808,10 818,20 C828,30 834,40 834,40 C834,40 834,30 834,10 C834,10 850,22 860,40 C870,58 874,70 874,70 C874,70 860,80 830,90 C800,100 760,102 760,102 L760,90 C760,90 790,74 820,60 C850,46 874,34 874,34 C874,34 864,56 846,70 C828,84 808,92 808,92 L808,80 C808,80 844,60 854,28 C854,28 844,24 826,20 C808,16 784,16 784,16 C784,16 792,10 808,8 C824,6 838,10 838,10 C838,10 826,4 808,4 C790,4 776,10 776,10 C776,10 790,0 808,0 C826,0 850,10 850,10 C850,10 840,20 808,20 Z"/>
  </g>
</svg>
